<svg width="512" height="512" viewBox="0 0 512 512" fill="none" xmlns="http://www.w3.org/2000/svg">
<path d="M154.6 6C194.6 6 227.2 38.6 227.2 78.6C227.2 78.7 227.2 78.8 227.2 79H205.5C205.5 78.9 205.5 78.8 205.5 78.6C205.5 50.5 182.6 27.7 154.6 27.7C126.6 27.7 103.7 50.6 103.7 78.6C103.7 105.3 124.4 127.2 150.5 129.3V151C112.3 148.9 82 117.3 82 78.6C82 38.6 114.5 6 154.6 6Z" fill="black"/>
<path d="M330.8 87.5999H159.1V226.4C159.1 289.3 205.8 341.1 265.3 347.1V490.2H196.7V506H357.1V490.3H288.5V347.2C348 341.2 394.7 289.4 394.7 226.5V87.5999H344L353.1 42.9C354.6 35.7 359.8 30.7 365.8 30.7H430V17.7H365.8C353.5 17.7 343.1 26.9999 340.4 40.2999L330.8 87.5999ZM323.7 187.8L339.6 109.3H373V184.7L323.7 187.8ZM212.6 223.1L215.6 206.3C216.1 203.4 218.9 201.5 221.8 202L238.6 205C241.5 205.5 243.4 208.3 242.9 211.2L239.9 228C239.4 230.9 236.6 232.8 233.7 232.3L216.9 229.3C214 228.8 212.1 226 212.6 223.1ZM326.4 109.3L310.3 188.6L295.9 189.5C297.2 192.1 297 195.3 295 197.7L279.7 216C277.1 219.1 272.4 219.6 269.3 216.9L251 201.6C248.2 199.3 247.6 195.4 249.2 192.4L180.8 196.6V109.3H326.4Z" fill="black"/>
<path d="M248.6 181.6C247.7 184.8 244.4 186.8 241.2 185.9L222.2 180.9C219 180 217 176.7 217.9 173.5L222.9 154.5C223.8 151.3 227.1 149.3 230.3 150.2L249.3 155.2C252.5 156.1 254.5 159.4 253.6 162.6L248.6 181.6Z" fill="black"/>
<path d="M265.3 172.9C267.9 169.8 272.6 169.3 275.7 172L294 187.3C294.8 187.9 295.4 188.7 295.8 189.6L249.1 192.5C249.3 192.1 249.6 191.7 249.9 191.3L265.3 172.9Z" fill="black"/>
</svg>
